<svg xmlns="http://www.w3.org/2000/svg" width="512" height="512" viewBox="0 0 512 512" version="1.1">
	<path d="M 115.500 66.980 C 114.400 67.449, 87.963 93.417, 56.750 124.687 C 3.797 177.737, 0 181.771, 0 184.976 C 0 188.131, 2.101 190.522, 25.750 214.279 C 39.913 228.506, 52.715 240.789, 54.200 241.573 C 57.921 243.539, 59.149 243.388, 63.510 240.429 L 67.298 237.858 73.219 243.679 C 83.768 254.051, 85.751 257.503, 89.621 272.223 C 95.279 293.742, 104.365 310.874, 118.865 327.361 L 125.779 335.222 122.886 339.876 C 121.295 342.436, 119.462 347.062, 118.813 350.156 C 115.819 364.428, 124.930 379.229, 139.345 383.510 C 142.105 384.329, 145.344 385, 146.542 385 C 148.408 385, 148.806 385.710, 149.307 389.946 C 150.782 402.397, 160.470 412.615, 173.169 415.113 C 178.282 416.119, 179 416.547, 179 418.593 C 179 419.875, 179.904 423.340, 181.008 426.292 C 187.993 444.961, 210.531 451.637, 226.198 439.678 C 230.268 436.572, 230.914 436.400, 237.029 436.789 C 248.546 437.522, 256.736 433.643, 262.709 424.625 C 265.291 420.727, 265.954 420.240, 266.986 421.483 C 267.657 422.292, 270.642 424.146, 273.619 425.602 C 284.157 430.758, 297.910 428.270, 305.538 419.827 C 307.492 417.663, 309.599 414.780, 310.218 413.420 C 310.838 412.061, 311.605 411.096, 311.922 411.277 C 323.863 418.069, 336.616 417.082, 345.756 408.658 C 352.273 402.650, 354.386 397.944, 354.448 389.296 L 354.500 382.092 358.904 380.405 C 364.458 378.276, 370.530 372.836, 373.231 367.568 C 376.460 361.268, 376.811 350.756, 374.008 344.241 L 371.781 339.063 379.458 330.781 C 396.851 312.020, 407.064 292.543, 413.165 266.500 L 415.274 257.500 429.494 243.090 L 443.713 228.680 447.107 231.224 C 451.836 234.770, 454.418 235.356, 457.700 233.632 C 459.240 232.822, 472.087 220.501, 486.250 206.250 C 509.786 182.567, 512 180.047, 512 176.940 C 512 173.784, 508.270 169.808, 460.058 121.570 C 410.577 72.062, 407.945 69.600, 404.493 69.600 C 401.083 69.600, 399.281 71.192, 373.935 96.588 C 349.005 121.566, 347 123.835, 347 127.060 C 347 129.491, 347.950 131.696, 350.141 134.355 L 353.282 138.166 346.391 145.113 C 334.252 157.351, 327.415 158.684, 309 152.405 C 291.600 146.471, 275.508 146.616, 260 152.845 C 254.253 155.153, 252.053 155.463, 241 155.525 C 231.422 155.578, 226.591 156.109, 220.333 157.797 C 210.590 160.425, 208.976 160.479, 201.996 158.406 C 197.323 157.019, 195.037 155.252, 184.344 144.768 L 172.060 132.724 173.867 130.112 C 176.605 126.156, 177.044 124.247, 175.910 121.241 C 174.798 118.296, 131.076 73.685, 124.600 68.888 C 120.550 65.889, 118.879 65.539, 115.500 66.980 M 69 135.500 L 19.507 185.001 38.507 204.001 L 57.507 223.001 107 173.500 L 156.493 123.999 137.493 104.999 L 118.493 85.999 69 135.500 M 385.499 108.001 L 366.511 127.008 410.255 170.752 L 453.998 214.495 473 195.494 L 492.001 176.492 448.243 132.743 L 404.486 88.994 385.499 108.001 M 119.541 184.959 L 78.634 225.875 88.198 235.838 C 98.697 246.777, 101.638 251.855, 104.509 264 C 109.824 286.481, 121.084 307.140, 135.772 321.360 C 140.778 326.206, 140.812 326.220, 148.146 326.441 C 163.154 326.894, 174.970 337.503, 176.696 352.078 C 177.257 356.821, 177.394 357, 180.461 357 C 192.767 357, 205.841 369.262, 207.656 382.506 C 208.212 386.563, 208.533 387, 210.958 387 C 215.760 387, 222.788 390.061, 227.492 394.202 C 233.482 399.474, 236.921 406.352, 237.691 414.597 L 238.298 421.093 241.399 420.441 C 245.289 419.623, 249.650 415.612, 250.290 412.264 C 251.402 406.447, 249.419 403.965, 220.506 374.989 C 194.048 348.473, 192.002 346.172, 192.032 342.960 C 192.049 341.057, 192.648 338.730, 193.363 337.789 C 195.061 335.554, 199.517 333.894, 201.741 334.667 C 202.709 335.004, 220.600 352.280, 241.500 373.060 C 275.238 406.603, 279.939 410.922, 283.410 411.562 C 289.755 412.731, 295.672 408.525, 296.156 402.500 C 296.649 396.368, 296.123 395.741, 260.500 360.028 C 228.351 327.798, 225 324.130, 225 321.174 C 225 316.804, 228.796 313, 233.156 313 C 236.100 313, 240.426 317.013, 279.512 356 L 322.620 399 326.906 399 C 334.762 399, 339.851 392.725, 337.839 385.518 C 337.268 383.473, 323.028 368.544, 292.503 337.992 C 249.581 295.030, 248 293.314, 248 289.679 C 248 287.010, 248.717 285.192, 250.455 283.455 C 253.250 280.659, 255.910 280.368, 259.800 282.435 C 261.285 283.224, 280.275 301.703, 302 323.500 C 323.725 345.297, 342.792 363.816, 344.371 364.654 C 352.017 368.709, 360.837 361.351, 359.240 352.250 C 358.890 350.253, 344.290 334.994, 305.909 296.513 L 253.060 243.527 238.252 258.217 C 220.634 275.694, 216.369 278.222, 204.500 278.222 C 191.955 278.222, 181.087 271.654, 175.178 260.500 C 172.855 256.114, 172.528 254.334, 172.515 246 C 172.492 231.496, 172.719 231.163, 204.352 199.264 L 231.361 172.027 223.930 174.096 C 218.380 175.640, 214.349 176.078, 208 175.827 C 194.673 175.299, 188.697 171.993, 173.014 156.475 L 160.448 144.042 119.541 184.959 M 360.478 155.059 C 347.257 168.580, 336.054 173.735, 322.128 172.705 C 317.501 172.363, 312.035 171.157, 308.235 169.639 C 298.256 165.653, 292.183 164.668, 281.344 165.275 C 270.453 165.885, 264.148 167.884, 255.647 173.425 C 252.816 175.270, 236.696 190.667, 219.823 207.640 C 187.185 240.474, 186.752 241.041, 188.437 248.712 C 190.035 255.989, 197.072 262, 203.992 262 C 210.634 262, 214.269 259.144, 239.046 234.457 C 266.108 207.493, 266.434 207.280, 272.077 212.923 C 276.412 217.258, 275.941 220.125, 269.834 226.582 L 264.668 232.044 267.584 235.102 C 276.657 244.616, 291.051 254.027, 301.848 257.504 C 307.099 259.195, 311.647 259.171, 322.341 257.397 C 327.144 256.600, 330.564 258.309, 331.913 262.181 C 334.479 269.540, 329.050 273.613, 314.119 275.532 L 308.738 276.224 334.102 301.602 L 359.466 326.981 365.797 320.740 C 381.309 305.451, 391.780 286.278, 396.512 264.500 C 399.460 250.930, 401.789 247.233, 417.592 231.041 L 431.896 216.384 398.676 183.176 L 365.457 149.968 360.478 155.059 M 457.201 177.028 C 454.186 179.836, 453.552 183.233, 455.382 186.771 C 458.663 193.116, 467.353 192.462, 469.933 185.677 C 472.766 178.225, 463.021 171.605, 457.201 177.028 M 49.159 184.601 C 45.957 186.844, 44.853 190.280, 46.144 193.984 C 47.334 197.396, 49.639 199, 53.352 199 C 57.191 199, 58.946 198.005, 60.537 194.928 C 62.566 191.005, 62.389 189.616, 59.411 186.077 C 56.476 182.589, 52.790 182.058, 49.159 184.601 M 140.763 344.565 C 133.040 348.756, 133.168 362.450, 140.967 366.483 C 147.188 369.700, 155.627 367.556, 158.483 362.033 C 159.317 360.419, 160 356.993, 160 354.418 C 160 350.345, 159.536 349.298, 156.429 346.368 C 153.401 343.512, 152.146 343.006, 148.179 343.040 C 145.605 343.062, 142.268 343.748, 140.763 344.565 M 175.014 374.107 C 169.629 375.245, 165.992 379.967, 166.035 385.766 C 166.077 391.371, 167.572 394.420, 171.567 397.054 C 177.308 400.838, 185.875 398.867, 189.364 392.960 C 192.303 387.985, 190.941 379.686, 186.594 376.078 C 184.310 374.183, 178.965 373.273, 175.014 374.107 M 205.256 404.058 C 203.472 404.436, 201.305 405.332, 200.440 406.050 C 196.271 409.509, 194.701 418.032, 197.353 422.810 C 201.809 430.840, 215.375 430.976, 219.483 423.033 C 222.257 417.669, 220.890 409.643, 216.594 406.078 C 214.359 404.223, 208.992 403.267, 205.256 404.058" stroke="none" fill="black" fill-rule="evenodd"/>
</svg>